<svg width="240" height="38" viewBox="0 0 240 38" fill="none" xmlns="http://www.w3.org/2000/svg">
<path d="M58.888 5.746C60.532 5.746 61.912 5.956 63.028 6.376C64.156 6.796 65.212 7.408 66.196 8.212L64.27 10.48C63.502 9.844 62.686 9.382 61.822 9.094C60.97 8.794 60.064 8.644 59.104 8.644C57.808 8.644 56.602 8.962 55.486 9.598C54.382 10.234 53.494 11.278 52.822 12.73C52.15 14.182 51.814 16.132 51.814 18.58C51.814 20.968 52.132 22.888 52.768 24.34C53.416 25.78 54.286 26.83 55.378 27.49C56.482 28.138 57.712 28.462 59.068 28.462C60.436 28.462 61.558 28.252 62.434 27.832C63.322 27.4 64.102 26.908 64.774 26.356L66.556 28.642C65.776 29.398 64.762 30.058 63.514 30.622C62.278 31.174 60.766 31.45 58.978 31.45C56.926 31.45 55.078 30.958 53.434 29.974C51.79 28.99 50.488 27.544 49.528 25.636C48.58 23.716 48.106 21.364 48.106 18.58C48.106 15.796 48.592 13.45 49.564 11.542C50.548 9.634 51.856 8.194 53.488 7.222C55.132 6.238 56.932 5.746 58.888 5.746Z" fill="url(#paint0_linear_17_20)"/>
<path d="M78.4219 11.578C80.2339 11.578 81.7519 11.986 82.9759 12.802C84.2119 13.618 85.1419 14.77 85.7659 16.258C86.4019 17.734 86.7199 19.48 86.7199 21.496C86.7199 23.452 86.3959 25.18 85.7479 26.68C85.1119 28.168 84.1759 29.338 82.9399 30.19C81.7039 31.03 80.1859 31.45 78.3859 31.45C76.5859 31.45 75.0619 31.042 73.8139 30.226C72.5779 29.41 71.6419 28.258 71.0059 26.77C70.3699 25.282 70.0519 23.536 70.0519 21.532C70.0519 19.564 70.3699 17.836 71.0059 16.348C71.6539 14.848 72.6019 13.678 73.8499 12.838C75.0979 11.998 76.6219 11.578 78.4219 11.578ZM78.4219 14.332C76.8619 14.332 75.6859 14.92 74.8939 16.096C74.1019 17.26 73.7059 19.072 73.7059 21.532C73.7059 23.968 74.0959 25.774 74.8759 26.95C75.6559 28.114 76.8259 28.696 78.3859 28.696C79.9459 28.696 81.1159 28.114 81.8959 26.95C82.6759 25.774 83.0659 23.956 83.0659 21.496C83.0659 19.048 82.6759 17.242 81.8959 16.078C81.1279 14.914 79.9699 14.332 78.4219 14.332Z" fill="url(#paint1_linear_17_20)"/>
<path d="M103.878 3.982L107.334 4.396V31H104.292L104.004 28.57C103.332 29.53 102.54 30.25 101.628 30.73C100.716 31.21 99.7199 31.45 98.6399 31.45C97.0079 31.45 95.6579 31.036 94.5899 30.208C93.5339 29.368 92.7479 28.204 92.2319 26.716C91.7159 25.228 91.4579 23.5 91.4579 21.532C91.4579 19.612 91.7519 17.908 92.3399 16.42C92.9399 14.92 93.7919 13.738 94.8959 12.874C96.0119 12.01 97.3559 11.578 98.9279 11.578C99.9719 11.578 100.902 11.764 101.718 12.136C102.534 12.496 103.254 13.03 103.878 13.738V3.982ZM99.8279 14.296C98.3519 14.296 97.2059 14.89 96.3899 16.078C95.5739 17.266 95.1659 19.084 95.1659 21.532C95.1659 23.152 95.3339 24.496 95.6699 25.564C96.0059 26.632 96.4919 27.424 97.1279 27.94C97.7639 28.456 98.5439 28.714 99.4679 28.714C100.464 28.714 101.322 28.426 102.042 27.85C102.774 27.274 103.386 26.608 103.878 25.852V16.582C103.386 15.862 102.792 15.304 102.096 14.908C101.412 14.5 100.656 14.296 99.8279 14.296Z" fill="url(#paint2_linear_17_20)"/>
<path d="M116.986 22.684C117.058 24.076 117.34 25.216 117.832 26.104C118.324 26.98 118.966 27.628 119.758 28.048C120.55 28.456 121.426 28.66 122.386 28.66C123.334 28.66 124.204 28.516 124.996 28.228C125.788 27.94 126.592 27.52 127.408 26.968L128.974 29.146C128.086 29.854 127.06 30.418 125.896 30.838C124.732 31.246 123.526 31.45 122.278 31.45C120.382 31.45 118.768 31.036 117.436 30.208C116.116 29.368 115.108 28.204 114.412 26.716C113.728 25.228 113.386 23.5 113.386 21.532C113.386 19.624 113.728 17.92 114.412 16.42C115.108 14.92 116.086 13.738 117.346 12.874C118.606 12.01 120.106 11.578 121.846 11.578C123.478 11.578 124.882 11.956 126.058 12.712C127.246 13.468 128.158 14.548 128.794 15.952C129.43 17.344 129.748 19.012 129.748 20.956C129.748 21.28 129.742 21.592 129.73 21.892C129.718 22.192 129.7 22.456 129.676 22.684H116.986ZM121.882 14.278C120.538 14.278 119.416 14.758 118.516 15.718C117.628 16.678 117.118 18.16 116.986 20.164H126.418C126.382 18.244 125.962 16.786 125.158 15.79C124.366 14.782 123.274 14.278 121.882 14.278Z" fill="url(#paint3_linear_17_20)"/>
<path d="M146.888 5.746C148.532 5.746 149.912 5.956 151.028 6.376C152.156 6.796 153.212 7.408 154.196 8.212L152.27 10.48C151.502 9.844 150.686 9.382 149.822 9.094C148.97 8.794 148.064 8.644 147.104 8.644C145.808 8.644 144.602 8.962 143.486 9.598C142.382 10.234 141.494 11.278 140.822 12.73C140.15 14.182 139.814 16.132 139.814 18.58C139.814 20.968 140.132 22.888 140.768 24.34C141.416 25.78 142.286 26.83 143.378 27.49C144.482 28.138 145.712 28.462 147.068 28.462C148.436 28.462 149.558 28.252 150.434 27.832C151.322 27.4 152.102 26.908 152.774 26.356L154.556 28.642C153.776 29.398 152.762 30.058 151.514 30.622C150.278 31.174 148.766 31.45 146.978 31.45C144.926 31.45 143.078 30.958 141.434 29.974C139.79 28.99 138.488 27.544 137.528 25.636C136.58 23.716 136.106 21.364 136.106 18.58C136.106 15.796 136.592 13.45 137.564 11.542C138.548 9.634 139.856 8.194 141.488 7.222C143.132 6.238 144.932 5.746 146.888 5.746Z" fill="url(#paint4_linear_17_20)"/>
<path d="M159.204 31V28.444H162.084V14.584H159.204V12.028H164.73L165.36 16.474C166.08 14.902 166.962 13.696 168.006 12.856C169.062 12.004 170.43 11.578 172.11 11.578C172.662 11.578 173.148 11.62 173.568 11.704C174 11.788 174.438 11.896 174.882 12.028L173.856 15.052C173.46 14.932 173.1 14.848 172.776 14.8C172.452 14.752 172.08 14.728 171.66 14.728C170.232 14.728 169.008 15.244 167.988 16.276C166.968 17.308 166.152 18.826 165.54 20.83V28.444H169.392V31H159.204ZM171.678 18.688V14.332L172.074 12.028H174.882L174.342 18.688H171.678Z" fill="url(#paint5_linear_17_20)"/>
<path d="M194.596 26.644C194.596 27.4 194.716 27.952 194.956 28.3C195.196 28.636 195.574 28.888 196.09 29.056L195.28 31.432C194.416 31.324 193.666 31.066 193.03 30.658C192.394 30.25 191.92 29.626 191.608 28.786C190.924 29.662 190.06 30.328 189.016 30.784C187.972 31.228 186.838 31.45 185.614 31.45C183.706 31.45 182.2 30.91 181.096 29.83C179.992 28.75 179.44 27.328 179.44 25.564C179.44 23.584 180.208 22.066 181.744 21.01C183.292 19.954 185.512 19.426 188.404 19.426H191.158V17.986C191.158 16.678 190.768 15.748 189.988 15.196C189.22 14.644 188.146 14.368 186.766 14.368C186.142 14.368 185.398 14.446 184.534 14.602C183.67 14.758 182.752 15.004 181.78 15.34L180.898 12.82C182.074 12.376 183.196 12.058 184.264 11.866C185.344 11.674 186.352 11.578 187.288 11.578C189.736 11.578 191.566 12.136 192.778 13.252C193.99 14.356 194.596 15.874 194.596 17.806V26.644ZM186.586 28.858C187.474 28.858 188.326 28.63 189.142 28.174C189.958 27.718 190.63 27.082 191.158 26.266V21.676H188.638C186.634 21.676 185.212 22.018 184.372 22.702C183.532 23.374 183.112 24.298 183.112 25.474C183.112 26.578 183.4 27.418 183.976 27.994C184.552 28.57 185.422 28.858 186.586 28.858Z" fill="url(#paint6_linear_17_20)"/>
<path d="M213.554 3.982C214.634 3.982 215.606 4.078 216.47 4.27C217.334 4.45 218.15 4.708 218.918 5.044L217.838 7.528C217.226 7.264 216.572 7.066 215.876 6.934C215.192 6.802 214.49 6.736 213.77 6.736C212.474 6.736 211.508 6.988 210.872 7.492C210.236 7.996 209.918 8.77 209.918 9.814V13.45H216.326L215.948 16.078H209.918V31H206.48V16.078H202.034V13.45H206.48V9.832C206.48 8.644 206.78 7.612 207.38 6.736C207.992 5.86 208.826 5.182 209.882 4.702C210.95 4.222 212.174 3.982 213.554 3.982Z" fill="url(#paint7_linear_17_20)"/>
<path d="M239.19 30.028C238.518 30.46 237.708 30.802 236.76 31.054C235.812 31.318 234.864 31.45 233.916 31.45C231.804 31.45 230.184 30.898 229.056 29.794C227.94 28.69 227.382 27.256 227.382 25.492V14.62H223.08V12.028H227.382V7.744L230.838 7.33V12.028H237.318L236.922 14.62H230.838V25.456C230.838 26.5 231.102 27.286 231.63 27.814C232.17 28.342 233.064 28.606 234.312 28.606C235.02 28.606 235.668 28.522 236.256 28.354C236.844 28.186 237.39 27.97 237.894 27.706L239.19 30.028Z" fill="url(#paint8_linear_17_20)"/>
<path d="M9.0041 0.0189771C7.4968 0.18556 5.76738 0.820164 4.52188 1.65308C3.86343 2.0973 3.6651 2.26389 2.91146 3.00161C1.54696 4.34221 0.587051 6.12704 0.150729 8.13397C0.00793312 8.77651 0 9.34765 0 19.0016C0 28.6555 0.00793312 29.2266 0.150729 29.8691C1.04717 33.9544 4.04589 36.9529 8.13145 37.8493C8.77404 37.9921 9.34522 38 18.9998 38C28.6545 38 29.2256 37.9921 29.8682 37.8493C33.9538 36.9529 36.9525 33.9544 37.8489 29.8691C37.9917 29.2266 37.9997 28.6555 37.9997 19.0016C37.9997 7.67388 38.0314 8.38781 37.4682 6.78544C36.421 3.81073 34.0172 1.44684 31.0979 0.486997C29.535 -0.0206857 30.3363 0.0110445 19.3172 0.00311198C13.7957 -0.00482057 9.15483 0.00311198 9.0041 0.0189771ZM9.33729 12.124C9.71808 12.2906 16.2312 18.2162 16.3502 18.5018C16.493 18.827 16.493 19.1761 16.3502 19.5013C16.2232 19.8107 9.69428 25.7284 9.29762 25.8949C8.97237 26.0298 8.41705 25.9663 8.14732 25.768C7.6396 25.3952 7.44921 24.7685 7.67133 24.237C7.7586 24.0387 8.59158 23.2455 10.5352 21.5003C12.0425 20.1438 13.2801 19.0254 13.2801 19.0016C13.2801 18.9778 12.0425 17.8593 10.5352 16.5028C7.7586 14.0199 7.57614 13.8216 7.57614 13.2981C7.57614 12.4017 8.52811 11.7671 9.33729 12.124ZM29.8365 23.65C30.2569 23.9594 30.3839 24.2132 30.3839 24.713C30.3839 25.2127 30.2569 25.4666 29.8365 25.7759C29.6223 25.9425 29.5271 25.9425 24.2516 25.9663C20.6261 25.9822 18.7856 25.9663 18.5873 25.9029C17.7861 25.6728 17.4767 24.5702 18.0241 23.9118C18.4287 23.4279 18.2224 23.4438 24.1722 23.4676C29.535 23.4834 29.6223 23.4834 29.8365 23.65Z" fill="url(#paint9_linear_17_20)"/>
<defs>
<linearGradient id="paint0_linear_17_20" x1="0" y1="19" x2="239.19" y2="19" gradientUnits="userSpaceOnUse">
<stop stop-color="#0098FF"/>
<stop offset="0.45" stop-color="#7C3AED"/>
<stop offset="1" stop-color="#F85149"/>
</linearGradient>
<linearGradient id="paint1_linear_17_20" x1="0" y1="19" x2="239.19" y2="19" gradientUnits="userSpaceOnUse">
<stop stop-color="#0098FF"/>
<stop offset="0.45" stop-color="#7C3AED"/>
<stop offset="1" stop-color="#F85149"/>
</linearGradient>
<linearGradient id="paint2_linear_17_20" x1="0" y1="19" x2="239.19" y2="19" gradientUnits="userSpaceOnUse">
<stop stop-color="#0098FF"/>
<stop offset="0.45" stop-color="#7C3AED"/>
<stop offset="1" stop-color="#F85149"/>
</linearGradient>
<linearGradient id="paint3_linear_17_20" x1="0" y1="19" x2="239.19" y2="19" gradientUnits="userSpaceOnUse">
<stop stop-color="#0098FF"/>
<stop offset="0.45" stop-color="#7C3AED"/>
<stop offset="1" stop-color="#F85149"/>
</linearGradient>
<linearGradient id="paint4_linear_17_20" x1="0" y1="19" x2="239.19" y2="19" gradientUnits="userSpaceOnUse">
<stop stop-color="#0098FF"/>
<stop offset="0.45" stop-color="#7C3AED"/>
<stop offset="1" stop-color="#F85149"/>
</linearGradient>
<linearGradient id="paint5_linear_17_20" x1="0" y1="19" x2="239.19" y2="19" gradientUnits="userSpaceOnUse">
<stop stop-color="#0098FF"/>
<stop offset="0.45" stop-color="#7C3AED"/>
<stop offset="1" stop-color="#F85149"/>
</linearGradient>
<linearGradient id="paint6_linear_17_20" x1="0" y1="19" x2="239.19" y2="19" gradientUnits="userSpaceOnUse">
<stop stop-color="#0098FF"/>
<stop offset="0.45" stop-color="#7C3AED"/>
<stop offset="1" stop-color="#F85149"/>
</linearGradient>
<linearGradient id="paint7_linear_17_20" x1="0" y1="19" x2="239.19" y2="19" gradientUnits="userSpaceOnUse">
<stop stop-color="#0098FF"/>
<stop offset="0.45" stop-color="#7C3AED"/>
<stop offset="1" stop-color="#F85149"/>
</linearGradient>
<linearGradient id="paint8_linear_17_20" x1="0" y1="19" x2="239.19" y2="19" gradientUnits="userSpaceOnUse">
<stop stop-color="#0098FF"/>
<stop offset="0.45" stop-color="#7C3AED"/>
<stop offset="1" stop-color="#F85149"/>
</linearGradient>
<linearGradient id="paint9_linear_17_20" x1="0" y1="19" x2="239.19" y2="19" gradientUnits="userSpaceOnUse">
<stop stop-color="#0098FF"/>
<stop offset="0.45" stop-color="#7C3AED"/>
<stop offset="1" stop-color="#F85149"/>
</linearGradient>
</defs>
</svg>
