<svg width="40" height="40" viewBox="0 0 40 40" fill="none" xmlns="http://www.w3.org/2000/svg">
<rect x="4" y="6" width="32" height="28" fill="white"/>
<path d="M9.478 0.0199768C7.89137 0.195341 6.07093 0.863393 4.75988 1.74021C4.06677 2.20785 3.858 2.38321 3.06469 3.15982C1.62838 4.57109 0.617949 6.44999 0.158663 8.5627C0.00835066 9.23911 0 9.84035 0 20.0031C0 30.1659 0.00835066 30.7671 0.158663 31.4435C1.10229 35.7441 4.25884 38.9007 8.55943 39.8443C9.23583 39.9946 9.83708 40.0029 19.9998 40.0029C30.1626 40.0029 30.7638 39.9946 31.4402 39.8443C35.7408 38.9007 38.8974 35.7441 39.841 31.4435C39.9913 30.7671 39.9997 30.1659 39.9997 20.0031C39.9997 8.07836 40.0331 8.82992 39.4402 7.14309C38.3379 4.01159 35.8076 1.5231 32.7346 0.512666C31.0895 -0.0217765 31.9329 0.0116261 20.3339 0.00327547C14.5218 -0.00507519 9.63666 0.00327547 9.478 0.0199768ZM9.82873 12.7631C10.2296 12.9384 17.0854 19.1764 17.2107 19.477C17.361 19.8194 17.361 20.1868 17.2107 20.5292C17.0771 20.8549 10.2045 27.0845 9.78697 27.2598C9.4446 27.4018 8.86005 27.335 8.57613 27.1262C8.04168 26.7337 7.84127 26.074 8.07509 25.5145C8.16694 25.3058 9.04376 24.4707 11.0897 22.6336C12.6763 21.2056 13.979 20.0282 13.979 20.0031C13.979 19.9781 12.6763 18.8006 11.0897 17.3726C8.16694 14.7589 7.97488 14.5501 7.97488 13.999C7.97488 13.0554 8.97696 12.3873 9.82873 12.7631ZM31.4068 24.8966C31.8494 25.2223 31.983 25.4895 31.983 26.0156C31.983 26.5417 31.8494 26.8089 31.4068 27.1346C31.1814 27.3099 31.0812 27.3099 25.528 27.335C21.7117 27.3517 19.7744 27.335 19.5656 27.2682C18.7222 27.026 18.3965 25.8653 18.9727 25.1722C19.3986 24.6628 19.1815 24.6795 25.4445 24.7045C31.0895 24.7212 31.1814 24.7212 31.4068 24.8966Z" fill="url(#paint0_linear_16_8)"/>
<defs>
<linearGradient id="paint0_linear_16_8" x1="40" y1="20" x2="2.69621e-08" y2="20" gradientUnits="userSpaceOnUse">
<stop stop-color="#7C3AED"/>
<stop offset="1" stop-color="#0098FF"/>
</linearGradient>
</defs>
</svg>
